<?xml version="1.0" encoding="iso-8859-1"?>
<!-- Generator: Adobe Illustrator 19.0.0, SVG Export Plug-In . SVG Version: 6.00 Build 0)  -->
<svg version="1.1" id="Layer_1" xmlns="http://www.w3.org/2000/svg" xmlns:xlink="http://www.w3.org/1999/xlink" x="0px" y="0px"
	 viewBox="0 0 512 512" style="enable-background:new 0 0 512 512;" xml:space="preserve">
<path style="fill:#F4B042;" d="M433.343,8.084h-9.089h-6.459h-9.089h-24.211h-16.409h-15.548h-24.211h-9.089h-56.166H143.912H87.745
	h-9.089H22.49c-7.958,0-14.406,6.449-14.406,14.405v404.208c0,7.956,6.448,14.405,14.406,14.405h56.166h9.089h56.166h224.177h56.166
	h9.089h56.166c7.956,0,14.406-6.449,14.406-14.405V22.489c0-7.956-6.45-14.405-14.406-14.405h-15.548h-13.282"/>
<rect x="8.084" y="152.425" style="fill:#F59D40;" width="495.832" height="144.341"/>
<path style="fill:#774633;" d="M173.548,470.205h164.905h22.996h30h22.996h22.274h22.996c7.143,0,12.935-5.79,12.935-12.935v-16.166
	h-45.269h-52.996H137.617H92.348H39.352v16.166c0,7.144,5.792,12.935,12.935,12.935h22.996h30h22.996h16.884"/>
<g style="opacity:0.2;">
	<path style="fill:#020202;" d="M65.082,457.27v-16.166h-25.73v16.166c0,7.144,5.792,12.935,12.935,12.935h22.996h2.735
		C70.874,470.205,65.082,464.414,65.082,457.27z"/>
</g>
<g>
	<path style="fill:#020202;" d="M122.619,495.832H77.35c-4.465,0-8.084,3.618-8.084,8.084S72.885,512,77.35,512h45.269
		c4.465,0,8.084-3.618,8.084-8.084S127.084,495.832,122.619,495.832z"/>
	<path style="fill:#020202;" d="M434.65,495.832h-45.269c-4.466,0-8.084,3.618-8.084,8.084s3.618,8.084,8.084,8.084h45.269
		c4.466,0,8.084-3.618,8.084-8.084S439.116,495.832,434.65,495.832z"/>
	<path style="fill:#020202;" d="M489.51,0H460.68c-4.466,0-8.084,3.618-8.084,8.084s3.618,8.084,8.084,8.084h28.829
		c3.486,0,6.322,2.836,6.322,6.321V144.34H16.168V22.489c0-3.485,2.836-6.321,6.322-6.321h410.852c4.466,0,8.084-3.618,8.084-8.084
		S437.808,0,433.343,0H22.49C10.089,0,0,10.088,0,22.489v129.935v144.339v129.935c0,12.401,10.089,22.489,22.49,22.489h8.777v8.082
		c0,11.59,9.428,21.019,21.019,21.019h92.876c4.465,0,8.084-3.618,8.084-8.084s-3.62-8.084-8.084-8.084H52.287
		c-2.675,0-4.851-2.176-4.851-4.851v-8.082h417.128v8.082c0,2.674-2.175,4.851-4.851,4.851H173.548
		c-4.465,0-8.084,3.618-8.084,8.084s3.62,8.084,8.084,8.084h286.166c11.59,0,21.019-9.429,21.019-21.019v-8.082h8.777
		c12.401,0,22.49-10.088,22.49-22.489V296.763V152.424V22.489C512,10.088,501.911,0,489.51,0z M495.832,160.508v128.17H16.168
		v-128.17H495.832z M489.51,433.019h-16.862H39.352H22.49c-3.486,0-6.322-2.836-6.322-6.321V304.847h479.663v121.851
		C495.832,430.183,492.996,433.019,489.51,433.019z"/>
	<path style="fill:#020202;" d="M229.107,74.096c-4.465,0-8.084,3.618-8.084,8.084c0,4.466,3.62,8.084,8.084,8.084h53.787
		c4.465,0,8.084-3.618,8.084-8.084c0-4.466-3.62-8.084-8.084-8.084H229.107z"/>
	<path style="fill:#020202;" d="M229.107,232.892h53.787c4.465,0,8.084-3.618,8.084-8.084c0-4.466-3.62-8.084-8.084-8.084h-53.787
		c-4.465,0-8.084,3.618-8.084,8.084C221.022,229.274,224.642,232.892,229.107,232.892z"/>
	<path style="fill:#020202;" d="M282.893,359.351h-53.787c-4.465,0-8.084,3.618-8.084,8.084s3.62,8.084,8.084,8.084h53.787
		c4.465,0,8.084-3.618,8.084-8.084S287.359,359.351,282.893,359.351z"/>
</g>
<g style="opacity:0.2;">
	<path style="fill:#020202;" d="M33.43,426.698V22.489c0-7.956,6.448-14.405,14.406-14.405H22.49
		c-7.958,0-14.406,6.449-14.406,14.405v404.208c0,7.956,6.448,14.405,14.406,14.405h25.346
		C39.878,441.104,33.43,434.654,33.43,426.698z"/>
</g>
<g>
</g>
<g>
</g>
<g>
</g>
<g>
</g>
<g>
</g>
<g>
</g>
<g>
</g>
<g>
</g>
<g>
</g>
<g>
</g>
<g>
</g>
<g>
</g>
<g>
</g>
<g>
</g>
<g>
</g>
</svg>
