<?xml version="1.0" encoding="iso-8859-1"?>
<!-- Generator: Adobe Illustrator 19.0.0, SVG Export Plug-In . SVG Version: 6.00 Build 0)  -->
<svg version="1.1" id="Layer_1" xmlns="http://www.w3.org/2000/svg" xmlns:xlink="http://www.w3.org/1999/xlink" x="0px" y="0px"
	 viewBox="0 0 512 512" style="enable-background:new 0 0 512 512;" xml:space="preserve">
<path style="fill:#F59D40;" d="M433.343,8.084h-9.089h-6.459h-9.089h-24.211h-16.409h-15.548h-24.211h-9.089h-56.166H143.912H87.745
	h-9.089H22.49c-7.958,0-14.406,6.449-14.406,14.405v404.208c0,7.956,6.448,14.405,14.406,14.405h56.166h9.089h56.166h224.177h56.166
	h9.089h56.166c7.956,0,14.406-6.449,14.406-14.405V22.489c0-7.956-6.45-14.405-14.406-14.405h-15.548h-13.282"/>
<path style="fill:#F4B042;" d="M295.29,8.084h-32.215H256v433.019h112.088h56.166h9.089h56.166c7.956,0,14.406-6.449,14.406-14.405
	V22.489c0-7.956-6.45-14.405-14.406-14.405h-15.548"/>
<g style="opacity:0.2;">
	<path style="fill:#020202;" d="M33.43,426.698V22.489c0-7.956,6.449-14.405,14.406-14.405H22.49
		c-7.958,0-14.406,6.449-14.406,14.405v404.208c0,7.956,6.448,14.405,14.406,14.405h25.346
		C39.878,441.104,33.43,434.654,33.43,426.698z"/>
</g>
<path style="fill:#774633;" d="M173.548,470.205h164.905h22.996h30h22.996h22.274h22.996c7.143,0,12.935-5.79,12.935-12.935v-16.166
	h-45.269h-52.996H137.617H92.348H39.352v16.166c0,7.144,5.792,12.935,12.935,12.935h22.996h30h22.996h16.884"/>
<g>
	<path style="fill:#020202;" d="M122.619,495.832H77.35c-4.465,0-8.084,3.618-8.084,8.084S72.885,512,77.35,512h45.269
		c4.466,0,8.084-3.618,8.084-8.084S127.084,495.832,122.619,495.832z"/>
	<path style="fill:#020202;" d="M434.65,495.832h-45.269c-4.466,0-8.084,3.618-8.084,8.084s3.618,8.084,8.084,8.084h45.269
		c4.466,0,8.084-3.618,8.084-8.084S439.116,495.832,434.65,495.832z"/>
	<path style="fill:#020202;" d="M286.181,207.924v53.787c0,4.466,3.618,8.084,8.084,8.084s8.084-3.618,8.084-8.084v-53.787
		c0-4.466-3.618-8.084-8.084-8.084C289.8,199.84,286.181,203.459,286.181,207.924z"/>
	<path style="fill:#020202;" d="M217.735,199.84c-4.466,0-8.084,3.618-8.084,8.084v53.787c0,4.466,3.618,8.084,8.084,8.084
		s8.084-3.618,8.084-8.084v-53.787C225.819,203.459,222.2,199.84,217.735,199.84z"/>
	<path style="fill:#020202;" d="M489.51,0h-15.548H460.68c-4.466,0-8.084,3.618-8.084,8.084s3.618,8.084,8.084,8.084h13.282h15.548
		c3.486,0,6.322,2.836,6.322,6.321v404.208c0,3.485-2.836,6.321-6.322,6.321h-16.862H264.084V16.168h31.206h138.052
		c4.466,0,8.084-3.618,8.084-8.084S437.808,0,433.343,0H295.29H256H22.49C10.089,0,0,10.088,0,22.489v404.208
		c0,12.401,10.089,22.489,22.49,22.489h8.777v8.082c0,11.59,9.429,21.019,21.019,21.019h92.876c4.466,0,8.084-3.618,8.084-8.084
		s-3.618-8.084-8.084-8.084H52.287c-2.675,0-4.851-2.176-4.851-4.851v-8.082H256h208.564v8.082c0,2.674-2.176,4.851-4.851,4.851
		H173.548c-4.466,0-8.084,3.618-8.084,8.084s3.618,8.084,8.084,8.084h286.166c11.59,0,21.019-9.429,21.019-21.019v-8.082h8.777
		c12.401,0,22.49-10.088,22.49-22.489V22.489C512,10.088,501.911,0,489.51,0z M39.352,433.019H22.49
		c-3.486,0-6.322-2.836-6.322-6.321V22.489c0-3.485,2.836-6.321,6.322-6.321h225.426v416.851H39.352z"/>
</g>
<g style="opacity:0.2;">
	<path style="fill:#020202;" d="M65.082,457.27v-16.166h-25.73v16.166c0,7.144,5.792,12.935,12.935,12.935h22.996h2.735
		C70.874,470.205,65.082,464.414,65.082,457.27z"/>
</g>
<g>
</g>
<g>
</g>
<g>
</g>
<g>
</g>
<g>
</g>
<g>
</g>
<g>
</g>
<g>
</g>
<g>
</g>
<g>
</g>
<g>
</g>
<g>
</g>
<g>
</g>
<g>
</g>
<g>
</g>
</svg>
