<?xml version="1.0" encoding="iso-8859-1"?>
<!-- Generator: Adobe Illustrator 19.0.0, SVG Export Plug-In . SVG Version: 6.00 Build 0)  -->
<svg version="1.1" id="Layer_1" xmlns="http://www.w3.org/2000/svg" xmlns:xlink="http://www.w3.org/1999/xlink" x="0px" y="0px"
	 viewBox="0 0 512 512" style="enable-background:new 0 0 512 512;" xml:space="preserve">
<path style="fill:#636D77;" d="M311.529,134.696H200.865c-7.143,0-12.935,5.79-12.935,12.935v23.275h136.534v-23.275
	C324.464,140.487,318.673,134.696,311.529,134.696z"/>
<path style="fill:#774633;" d="M37.187,433.451v21.492c0,7.143,5.79,12.935,12.935,12.935h411.756
	c7.144,0,12.935-5.792,12.935-12.935v-21.492H256"/>
<path style="fill:#D6E0E0;" d="M441.07,171.82h-93.327H21.019c-7.144,0-12.935,5.789-12.935,12.935v22.526h495.832v-22.526
	c0-7.145-5.79-12.935-12.935-12.935h-21.435h-1.528"/>
<path style="fill:#F59D40;" d="M195.489,433.451H21.019c-7.144,0-12.935-5.789-12.935-12.935V207.281h495.832v213.236
	c0,7.145-5.79,12.935-12.935,12.935h-21.435H347.743H221.359"/>
<path style="fill:#F4B042;" d="M256,433.451h91.743h121.803h21.435c7.144,0,12.935-5.789,12.935-12.935V207.281H256V433.451z"/>
<g style="opacity:0.2;">
	<path style="fill:#020202;" d="M46.365,171.82H21.019c-7.144,0-12.935,5.789-12.935,12.935v22.526H33.43v-22.526
		C33.43,177.61,39.22,171.82,46.365,171.82z"/>
</g>
<g style="opacity:0.2;">
	<path style="fill:#020202;" d="M226.209,135.446h-25.346c-7.144,0-12.935,5.789-12.935,12.935v22.526h25.346V148.38
		C213.274,141.235,219.065,135.446,226.209,135.446z"/>
</g>
<g style="opacity:0.2;">
	<path style="fill:#020202;" d="M33.43,420.516V207.281H8.084v213.236c0,7.145,5.79,12.935,12.935,12.935h25.346
		C39.22,433.451,33.43,427.662,33.43,420.516z"/>
</g>
<path style="fill:#7DE3EA;" d="M226.928,95.19c0,7.143-5.792,12.935-12.935,12.935h-8.623c-7.143,0-12.935-5.792-12.935-12.935
	V67.883c0-7.143,5.792-12.935,12.935-12.935h8.623c7.143,0,12.935,5.792,12.935,12.935V95.19z"/>
<g>
	<path style="fill:#020202;" d="M85.432,495.189H40.162c-4.466,0-8.084,3.618-8.084,8.084s3.618,8.084,8.084,8.084h45.269
		c4.466,0,8.084-3.618,8.084-8.084S89.896,495.189,85.432,495.189z"/>
	<path style="fill:#020202;" d="M471.838,495.189h-45.269c-4.466,0-8.084,3.618-8.084,8.084s3.618,8.084,8.084,8.084h45.269
		c4.466,0,8.084-3.618,8.084-8.084S476.303,495.189,471.838,495.189z"/>
	<path style="fill:#020202;" d="M294.265,355.365c4.466,0,8.084-3.618,8.084-8.084v-53.787c0-4.466-3.618-8.084-8.084-8.084
		s-8.084,3.618-8.084,8.084v53.787C286.181,351.747,289.8,355.365,294.265,355.365z"/>
	<path style="fill:#020202;" d="M225.819,347.281v-53.787c0-4.466-3.618-8.084-8.084-8.084s-8.084,3.618-8.084,8.084v53.787
		c0,4.466,3.618,8.084,8.084,8.084S225.819,351.747,225.819,347.281z"/>
	<path style="fill:#020202;" d="M490.981,163.736h-22.963c-4.466,0-8.084,3.618-8.084,8.084c0,4.466,3.618,8.084,8.084,8.084h22.963
		c2.674,0,4.851,2.176,4.851,4.851v14.442H256H16.168v-14.442c0-2.674,2.176-4.851,4.851-4.851H441.07
		c4.466,0,8.084-3.618,8.084-8.084c0-4.466-3.618-8.084-8.084-8.084H332.548v-16.104c0-11.59-9.429-21.019-21.019-21.019h-48.011
		V94.113V68.961V47.559c0-16.954,13.794-30.748,30.749-30.748c16.954,0,30.746,13.794,30.746,30.748
		c0,4.466,3.618,8.084,8.084,8.084s8.084-3.618,8.084-8.084c0-25.871-21.046-46.916-46.914-46.916
		c-25.871,0-46.918,21.046-46.918,46.916v13.317h-13.563c-2.895-8.15-10.663-14.013-19.792-14.013h-8.623
		c-11.59,0-21.019,9.429-21.019,21.019V95.19c0,11.59,9.429,21.019,21.019,21.019h8.623c9.13,0,16.898-5.863,19.792-14.013h13.563
		v24.415h-46.485c-11.59,0-21.019,9.429-21.019,21.019v16.104H21.019C9.429,163.735,0,173.164,0,184.754v22.526v213.236
		c0,11.59,9.429,21.019,21.019,21.019h8.084v13.408c0,11.59,9.429,21.019,21.019,21.019h411.756c11.59,0,21.019-9.429,21.019-21.019
		v-13.408h8.084c11.59,0,21.019-9.429,21.019-21.019V207.281v-22.526C512,173.165,502.571,163.736,490.981,163.736z M218.844,95.19
		c0,2.674-2.176,4.851-4.851,4.851h-8.623c-2.674,0-4.851-2.176-4.851-4.851V67.883c0-2.674,2.176-4.851,4.851-4.851h8.623
		c2.674,0,4.851,2.176,4.851,4.851v1.078v25.152V95.19z M235.012,86.028v-8.983h12.336v8.983H235.012z M196.014,147.631
		c0-2.674,2.176-4.851,4.851-4.851h54.382c0.063,0.001,0.124,0.01,0.188,0.01c0.064,0,0.125-0.008,0.188-0.01h55.907
		c2.674,0,4.851,2.176,4.851,4.851v15.191H196.014V147.631z M466.728,454.944c0,2.674-2.176,4.851-4.851,4.851H50.122
		c-2.674,0-4.851-2.176-4.851-4.851v-13.408h150.218c4.466,0,8.084-3.618,8.084-8.084s-3.618-8.084-8.084-8.084H21.019
		c-2.674,0-4.851-2.176-4.851-4.851V215.365h231.747v210.002h-26.557c-4.466,0-8.084,3.618-8.084,8.084
		c0,4.466,3.618,8.084,8.084,8.084H256h210.728V454.944z M495.832,420.516c0,2.674-2.176,4.851-4.851,4.851h-16.168H264.084V215.365
		h231.747V420.516z"/>
</g>
<g style="opacity:0.2;">
	<path style="fill:#020202;" d="M62.918,454.944v-21.492h-25.73v21.492c0,7.143,5.79,12.935,12.935,12.935h25.73
		C68.708,467.879,62.918,462.088,62.918,454.944z"/>
</g>
<g>
</g>
<g>
</g>
<g>
</g>
<g>
</g>
<g>
</g>
<g>
</g>
<g>
</g>
<g>
</g>
<g>
</g>
<g>
</g>
<g>
</g>
<g>
</g>
<g>
</g>
<g>
</g>
<g>
</g>
</svg>
