<?xml version="1.0" encoding="utf-8"?>
<!-- Generator: Adobe Illustrator 21.1.0, SVG Export Plug-In . SVG Version: 6.00 Build 0)  -->
<svg version="1.1" id="Layer_1" xmlns="http://www.w3.org/2000/svg" xmlns:xlink="http://www.w3.org/1999/xlink" x="0px" y="0px"
	 viewBox="0 0 64 64" style="enable-background:new 0 0 64 64;" xml:space="preserve">
<style type="text/css">
	.st0{fill:#FFFFFF;}
	.st1{fill-rule:evenodd;clip-rule:evenodd;fill:#ACBDC5;}
	.st2{fill-rule:evenodd;clip-rule:evenodd;fill:#314A52;}
	.st3{fill-rule:evenodd;clip-rule:evenodd;fill:#597380;}
</style>
<g id="Boxers">
	<polygon class="st0" points="61,46 54,19 10,19 3,45.5 26,53 29,46 35.5,46 39,53 	"/>
	<path class="st1" d="M20,20h-8.9L5.9,40.3c0,0.1,0,0.1,0,0.2c0,3,6.3,5.5,14.1,5.5c1.6,0,3.2-0.2,4.7-0.5C21.8,43.3,20,39.9,20,36
		V20z M40,20H24v16c0,3.7,2.5,6.7,5.8,7.7C35.9,40.6,40,34.7,40,28V20z M8,12v3.8L0,47l27,9l3.8-8h2.3l3.8,8l25.2-8.1L57,30h-1.5
		c0.3,1.3,0.5,2.6,0.5,4c0,6.3-3.5,11.8-8.5,14.4L43,49.9C42.4,50,41.7,50,41,50c-1.4,0-2.7-0.7-3.3-1.7l-0.7-1.4
		C41.2,45,44,40.8,44,36V20h9.5v-4L12,12H8z"/>
	<polygon class="st2" points="8,8 56,8 56,15.8 64,47.3 53.2,50.8 52,47 59.2,44.7 52,16.2 52,12 12,16 8,16 	"/>
	<rect x="12" y="12" class="st3" width="40" height="4"/>
</g>
</svg>
