<?xml version="1.0" encoding="utf-8"?>
<!-- Generator: Adobe Illustrator 21.1.0, SVG Export Plug-In . SVG Version: 6.00 Build 0)  -->
<svg version="1.1" id="Layer_1" xmlns="http://www.w3.org/2000/svg" xmlns:xlink="http://www.w3.org/1999/xlink" x="0px" y="0px"
	 viewBox="0 0 64 64" style="enable-background:new 0 0 64 64;" xml:space="preserve">
<style type="text/css">
	.st0{fill:#FFFFFF;}
	.st1{fill:#ACBDC5;}
	.st2{fill:#FF6C58;}
	.st3{fill-rule:evenodd;clip-rule:evenodd;fill:#D7385E;}
	.st4{fill:#314A52;}
</style>
<g id="Cap">
	<path class="st0" d="M61.3,37.7L18.7,26.3C21.9,14.6,34,7.6,45.7,10.8C57.4,13.9,64.4,26,61.3,37.7z"/>
	<path class="st1" d="M44.5,8.8c-13.1-3.5-24.9,4.4-28.3,17.3l0,0L14.1,34l3.9,1l0.8-3.1H28l32,14.5L62,27l-6-7h-0.2
		c0.2,0.3,0.2,0.7,0.2,1c0,3.9-10.7,7-24,7h0c-6.1,0-11-1.6-11-3.5c0-0.1,0-0.2,0-0.2c3.8-9.2,12.7-14.2,22.5-11.6
		c1.3,0.3,2.5,0.8,3.6,1.3l1.7-3.6C47.5,9.8,46,9.2,44.5,8.8z"/>
	<path class="st2" d="M37,36c6.8,3.2,12.8,6.7,15,8c-2.5,3.3-8.8,10-14,10c-6.5,0-11-4.5-18-10c-5.3-4.2-9-4.2-12-3l13-9
		C24.5,32,28.5,32,37,36z"/>
	<path class="st3" d="M17.4,35.5c-0.1,0.1-0.2,0.1-0.3,0.2L12,39.1c3,0.2,6.4,1.2,9.2,3.4c1.1,0.8,2,1.6,3,2.4
		c0.5,0.4,0.9,0.8,1.4,1.1c1.9,1.3,4.7,2.1,7.9,2.1c5.8,0,10.5-2.8,10.5-6.2c0,0,0,0,0,0c-2.3-1.2-5-2.6-7.9-4
		c-8.4-3.9-11.1-4.3-14.1-4.3c-0.8,0-1.7,0.3-2.6,0.7C18.7,34.6,18,35.1,17.4,35.5z M17.7,30.7c1.2-0.6,2.7-1.1,4.3-1.1
		c3.9,0,7.2,0.6,15.9,4.7c6.9,3.2,13,6.7,15.2,8.1l1.9,1.1l-1.3,1.8c-1.3,1.8-3.6,4.4-6.3,6.6C44.7,53.9,41.3,56,38,56
		c-3.8,0-6.9-1.3-9.9-3.3c-2.1-1.4-4.3-3.1-6.6-5c-0.9-0.7-1.8-1.5-2.7-2.2c-1.3-1-2.8-1.7-4.4-2.1C12.1,46.3,8.3,50,6,50
		c-3.5,0-4-2.5-4-4c0-1.4,0.9-3.3,1.8-3.9l-0.9-1.8l12-8c0.1-0.1,0.2-0.1,0.3-0.2C15.7,31.8,16.6,31.2,17.7,30.7z"/>
	<path class="st4" d="M52,12c0,0.1,0,0.1,0,0.2c8.7,5.6,14.1,16.1,11.3,26.6l-2.6,9.7l-7.9-2.2c-1.4,1.7-3.3,3.7-5.5,5.5
		C44.7,53.9,41.3,56,38,56v-4c1.9,0,4.3-1.3,6.7-3.3c2.4-2,4.5-4.3,5.7-5.9l0.8-1.1l6.6,1.8l1.6-5.8c2.4-8.9-2.5-18.2-10.7-22.9
		c-1.1-0.6-2.2-1.1-3.3-1.5l-1.8-0.7l0.5-1.8C44.7,9.2,46.2,8,48,8C50.2,8,52,9.8,52,12z M0,46c0,0.9,0.1,2.4,1,3.7
		C2,51.1,3.7,52,6,52c1.3,0,2.5-0.6,3.5-1.2c1-0.6,2.1-1.5,3-2.4c1.5-1.4,2.9-3,3.9-4.3c-1.5-0.7-2.7-1-4.3-1.1
		c-0.7,0.8-1.5,1.7-2.4,2.5c-0.8,0.8-1.7,1.4-2.4,1.9C6.6,47.9,6.1,48,6,48c-1.2,0-1.5-0.4-1.7-0.6C4.1,47.1,4,46.6,4,46
		c0-0.4,0.1-0.9,0.4-1.5c0.1-0.3,0.3-0.5,0.4-0.6c0-0.1,0.1-0.1,0.1-0.1c-0.1,0-0.1,0-0.2,0.1l-1.8-3.5L3,40.3
		c-1,0.6-1.7,1.6-2.1,2.4C0.4,43.7,0,44.9,0,46z"/>
</g>
</svg>
