<?xml version="1.0" encoding="UTF-8"?>
<svg width="200" height="200" viewBox="0 0 200 200" xmlns="http://www.w3.org/2000/svg">
    <!-- 牙刷 -->
    <path d="M40 160 L120 80 L140 100 L60 180 Z" fill="#F4B042" stroke="#333333" stroke-width="4"/>
    <path d="M120 80 L150 50" stroke="#333333" stroke-width="8" stroke-linecap="round"/>
    
    <!-- 牙刷毛 -->
    <line x1="125" y1="75" x2="130" y2="70" stroke="#333333" stroke-width="2"/>
    <line x1="130" y1="80" x2="135" y2="75" stroke="#333333" stroke-width="2"/>
    <line x1="135" y1="85" x2="140" y2="80" stroke="#333333" stroke-width="2"/>
    
    <!-- 毛巾 -->
    <path d="M100 40 C120 40, 140 40, 160 40 S180 50, 160 60 S120 60, 100 60 S80 50, 100 40" 
        fill="#F4B042" stroke="#333333" stroke-width="4"/>
    
    <!-- 褶皱纹理 -->
    <path d="M110 45 C130 45, 150 45, 170 45" stroke="#333333" stroke-width="1" opacity="0.3"/>
    <path d="M110 50 C130 50, 150 50, 170 50" stroke="#333333" stroke-width="1" opacity="0.3"/>
    <path d="M110 55 C130 55, 150 55, 170 55" stroke="#333333" stroke-width="1" opacity="0.3"/>
</svg> 