<?xml version="1.0" encoding="utf-8"?>
<!-- Generator: Adobe Illustrator 21.1.0, SVG Export Plug-In . SVG Version: 6.00 Build 0)  -->
<svg version="1.1" id="Layer_1" xmlns="http://www.w3.org/2000/svg" xmlns:xlink="http://www.w3.org/1999/xlink" x="0px" y="0px"
	 viewBox="0 0 64 64" style="enable-background:new 0 0 64 64;" xml:space="preserve">
<style type="text/css">
	.st0{fill:#FFCDB2;}
	.st1{fill-rule:evenodd;clip-rule:evenodd;fill:#D7385E;}
	.st2{fill:#FFB4A2;}
	.st3{fill:#314A52;}
</style>
<g id="Dress">
	<polygon class="st0" points="32,11 23,7 23,26 9,57 32,62 55,57 41,26 41,7 	"/>
	<rect x="24" y="22" class="st1" width="16" height="4"/>
	<path class="st2" d="M24,11.2V0h-4v11.2c0,2,0.2,4,0.5,6l1.4,7.9c-7,9.9-12.2,20.6-13.7,32.7L8,59.3l1.4,0.6
		C12.7,61.2,19.7,64,32,64c6.1,0,10.8-0.7,14.5-1.5l-0.7-2.9L55,58l-8-22h-1.9c0.6,1.4,0.9,2.9,0.9,4.4C46,49,36.2,56,24,56l0,0
		c-5.5,0-9.9-3-9.9-6.8c0-0.1,0-0.2,0-0.2c2.4-7.9,6.4-15.2,11.5-22.3l0.5-0.7l-0.7-4H40l2-13h-2c0,2.8-2.3,5.1-5.6,6.3
		C33.3,15.7,31.8,16,30,16c-3.2,0-5.7-0.9-5.8-2h-0.1C24,13.1,24,12.1,24,11.2z"/>
	<path class="st3" d="M32,12c-3.1,0-5.9-1.2-8-3.1V0c0,4.4,3.6,8,8,8c4.4,0,8-3.6,8-8h4v11.2c0,2-0.2,4-0.5,6L42.1,25
		c7,9.9,12.2,20.6,13.7,32.7l0.2,1.5l-1.4,0.6c-1.9,0.8-5.2,2-9.7,3l-0.8-3.9c3.2-0.7,5.7-1.5,7.5-2.2C50,45.8,45.1,36,38.4,26.7
		L37.9,26l1.7-9.5c0.3-1.8,0.5-3.5,0.5-5.3V8.9C37.9,10.8,35.1,12,32,12z"/>
</g>
</svg>
