<?xml version="1.0" encoding="utf-8"?>
<!-- Generator: Adobe Illustrator 21.1.0, SVG Export Plug-In . SVG Version: 6.00 Build 0)  -->
<svg version="1.1" id="Layer_1" xmlns="http://www.w3.org/2000/svg" xmlns:xlink="http://www.w3.org/1999/xlink" x="0px" y="0px"
	 viewBox="0 0 64 64" style="enable-background:new 0 0 64 64;" xml:space="preserve">
<style type="text/css">
	.st0{fill:#E4CE8E;}
	.st1{fill:#A79E8B;}
	.st2{fill:#597380;}
	.st3{fill-rule:evenodd;clip-rule:evenodd;fill:#314A52;}
</style>
<g id="Hat">
	<path class="st0" d="M12,19.3c0-5.5,5.4-9.4,10.6-7.6L32,15l9.4-3.3c5.2-1.8,10.6,2,10.6,7.6v17.5H12V19.3z"/>
	<path class="st1" d="M62,36h2c0,7.5-8.3,20-32,20C8.3,56,0,43.5,0,36c0-1.7,0.2-3.3,1.3-4.4c1.2-1.3,2.8-1.1,3.8-1
		c0.7,0.1,1.5,0.4,2.3,0.6c0.4,0.1,0.7,0.2,1.1,0.3C9.6,31.8,10.7,32,12,32v2.8L43.5,40L40,12l5-2l5,5l3,19.5c2.5,0,4.3-0.6,5.7-1.1
		C61,32.6,62,32.3,62,36z"/>
	<path class="st2" d="M32,36c-15,0-20-4-20-4v8.4c4.3,2.2,11.7,3.6,20,3.6c8.3,0,15.7-1.4,20-3.6V32C52,32,47,36,32,36z"/>
	<path class="st3" d="M60.1,34.5C60.1,34.5,60.1,34.5,60.1,34.5C60.1,34.5,60.1,34.5,60.1,34.5C60.1,34.5,60.1,34.5,60.1,34.5
		C60.1,34.5,60.1,34.5,60.1,34.5z M40.3,8.9c5.6-2.6,12.1,1,12.8,7.1L55,31.6c0.2,0,0.4-0.1,0.6-0.2c0.3-0.1,0.7-0.2,1.1-0.3
		c0.8-0.2,1.6-0.5,2.3-0.6c1-0.2,2.6-0.3,3.8,1c1.1,1.1,1.3,2.8,1.3,4.4c0,5.3-4.2,13.3-15.3,17.4l-1.4-3.8C57.1,46,60,39.3,60,36
		c0-0.8-0.1-1.3-0.1-1.5c-0.1,0-0.2,0-0.3,0c-0.5,0.1-0.9,0.2-1.6,0.4c-0.4,0.1-0.9,0.3-1.4,0.4c-0.4,0.1-0.8,0.2-1.2,0.3l0.2,1.8
		c-0.6,1.1-1.8,2.1-3.6,3c-2.1,1-4.9,1.9-8.1,2.5l-1-7.8c4.4-0.8,6.9-1.9,8.2-2.6l-1.9-16.2c-0.4-3.4-4-5.4-7.1-3.9L36.7,15
		c-3,1.4-6.4,1.4-9.4,0l-5.4-2.5c-3.1-1.5-6.7,0.5-7.1,3.9l-2.8,24c-1.8-0.9-3.1-1.9-3.7-3.1L10.9,16c0.7-6.1,7.2-9.7,12.8-7.1
		l5.4,2.5c1.9,0.9,4.1,0.9,6,0L40.3,8.9z"/>
</g>
</svg>
