<?xml version="1.0" encoding="utf-8"?>
<!-- Generator: Adobe Illustrator 21.1.0, SVG Export Plug-In . SVG Version: 6.00 Build 0)  -->
<svg version="1.1" id="Layer_1" xmlns="http://www.w3.org/2000/svg" xmlns:xlink="http://www.w3.org/1999/xlink" x="0px" y="0px"
	 viewBox="0 0 64 64" style="enable-background:new 0 0 64 64;" xml:space="preserve">
<style type="text/css">
	.st0{fill:#E4CE8E;}
	.st1{fill:#A79E8B;}
	.st2{fill:#314A52;}
</style>
<g id="Purse">
	<path class="st0" d="M23.1,26H11.1c-3,0-5.5,2.2-5.9,5.1L2.1,53h59.9l-3.1-21.9c-0.5-2.9-3-5.1-5.9-5.1H40.9c-2.2,2.5-5.4,4-8.9,4
		C28.4,30,25.3,28.5,23.1,26z"/>
	<path class="st1" d="M7.2,31.4c0.3-1.9,2-3.4,4-3.4h11.1c2.5,2.5,6,4,9.8,4s7.3-1.5,9.8-4H52v-4H40.1l-0.6,0.7
		C37.6,26.7,35,28,32,28c-3,0-5.6-1.3-7.5-3.3L23.9,24H11.1c-3.9,0-7.3,2.9-7.9,6.8l-3.1,20C-0.7,55.6,3.1,60,8,60h44v-2h4
		c3.7,0,6.5-3.3,5.9-6.9L58.8,36h-1.2c0,0.3,0.1,0.6,0.1,0.9c0,8.3-16.9,15.1-37.7,15.1c-8.3,0-15-2.5-15-5.7c0-0.1,0-0.1,0-0.2
		L7.2,31.4z"/>
	<path class="st2" d="M12,24c0-11,9-20,20-20c11,0,20,9,20,20h0.9c3.9,0,7.3,2.9,7.9,6.8l3.1,20c0.8,4.9-3,9.2-7.9,9.2h-8.1v-4H56
		c2.5,0,4.3-2.2,3.9-4.6l-3.1-20c-0.3-1.9-2-3.4-3.9-3.4H48v-4c0-8.8-7.2-16-16-16c-8.8,0-16,7.2-16,16H12z M40,40v-4H24v4H40z"/>
</g>
</svg>
