<?xml version="1.0" encoding="utf-8"?>
<!-- Generator: Adobe Illustrator 21.1.0, SVG Export Plug-In . SVG Version: 6.00 Build 0)  -->
<svg version="1.1" id="Layer_1" xmlns="http://www.w3.org/2000/svg" xmlns:xlink="http://www.w3.org/1999/xlink" x="0px" y="0px"
	 viewBox="0 0 64 64" style="enable-background:new 0 0 64 64;" xml:space="preserve">
<style type="text/css">
	.st0{fill:#FF6C58;}
	.st1{fill:#D7385E;}
	.st2{fill-rule:evenodd;clip-rule:evenodd;fill:#314A52;}
</style>
<g id="Skirt">
	<polygon class="st0" points="32,59 2,47 14,7 50,7 62,47 	"/>
	<path class="st1" d="M20,12h-4v0.6l-0.3,0.5l0,0l0,0c0,0,0,0,0,0.1c0,0.1-0.1,0.2-0.2,0.3c-0.2,0.3-0.4,0.7-0.8,1.4
		c-0.7,1.3-1.7,3.2-2.8,5.9c-2.4,5.7-4.4,12.1-5.8,17.1l0,0.1C6,38.2,6,38.3,6,38.5c0,1.6,1.7,3,4.3,4L16,24l-3,19.3
		c2.1,0.5,4.4,0.7,7,0.7c0.7,0,1.4,0,2.2,0L26,26l-1.3,17.8c5.4-0.5,10.4-2,14.2-4.1L38,26l2.7,12.6c4.5-2.9,7.3-6.8,7.3-11.1
		c0-2-0.9-5.1-1.5-7.5c-0.8-3-2.2-5.3-3.5-7V8h5v2h2l12,38l-6,2c0,2-1.5,3.5-3.6,4.4c-2,0.9-4.8,1.4-8.9,1.6
		c-0.5,0.9-1.4,1.7-2.5,2.3c-1.9,1.1-4.8,1.8-9,1.8c-4.2,0-7.1-0.7-9-1.8c-1.1-0.6-1.9-1.4-2.5-2.3c-4.2-0.1-7.1-0.8-9-1.7
		c-1.3-0.6-2.3-1.4-3-2.4c-2.6-0.2-4.5-0.8-5.9-1.7C1,49.2,0,47.6,0,46v-0.2l0-0.2l0,0l0-0.1c0-0.1,0.1-0.3,0.1-0.5
		c0.1-0.4,0.2-1,0.4-1.8c0.4-1.5,0.9-3.7,1.6-6.3c1.4-5.1,3.4-11.7,5.9-17.6c1.2-2.8,2.2-4.9,3-6.2c0.4-0.7,0.7-1.2,0.9-1.5l0,0V8h8
		V12z M39,8H24v4h15V8z"/>
	<path class="st2" d="M12,4h40v7.4c0,0,0,0,0,0c0.2,0.3,0.5,0.9,0.9,1.5c0.7,1.4,1.8,3.4,3,6.2c2.5,6,4.5,12.6,5.9,17.6
		c0.7,2.5,1.2,4.7,1.6,6.3c0.2,0.8,0.3,1.4,0.4,1.8c0,0.2,0.1,0.4,0.1,0.5l0,0.1l0,0l0,0c0,0,0,0-2,0.4l2-0.4l0,0.2V46
		c0,1.6-1,3.2-2.7,4.2C59.7,51.3,57.3,52,54,52h-2v-4h2c2.7,0,4.3-0.6,5.2-1.1c0.6-0.4,0.7-0.7,0.8-0.8c0-0.1,0-0.2-0.1-0.3
		c-0.1-0.4-0.2-1-0.4-1.8c-0.4-1.5-0.9-3.6-1.6-6.1c-1.4-5-3.3-11.4-5.8-17.1c-1.1-2.7-2.1-4.6-2.8-5.9c-0.3-0.6-0.6-1.1-0.8-1.4
		c-0.1-0.1-0.2-0.3-0.2-0.3c0,0,0-0.1,0-0.1l0,0l0,0l0,0L48,12.6V8H16v4h-4V4z"/>
</g>
</svg>
