<?xml version="1.0" encoding="utf-8"?>
<!-- Generator: Adobe Illustrator 21.1.0, SVG Export Plug-In . SVG Version: 6.00 Build 0)  -->
<svg version="1.1" id="Layer_1" xmlns="http://www.w3.org/2000/svg" xmlns:xlink="http://www.w3.org/1999/xlink" x="0px" y="0px"
	 viewBox="0 0 64 64" style="enable-background:new 0 0 64 64;" xml:space="preserve">
<style type="text/css">
	.st0{fill:#E4CE8E;}
	.st1{fill:#A79E8B;}
	.st2{fill:#314A52;}
</style>
<g id="Storage_Box">
	<polygon class="st0" points="61,11 3,11 3,21 6,23.3 6,57 58,57 58,22.3 61,21 	"/>
	<path class="st1" d="M4,8c-2.2,0-4,1.8-4,4v12h4v30c0,3.3,2.7,6,6,6h42v-3h5V32h-1c0,11-14.3,20-32,20c-8.8,0-16-3.6-16-8V24h44v-4
		H4v-8h16V8H4z"/>
	<path class="st2" d="M64,12v12h-4v30c0,3.3-2.7,6-6,6h-6v-4h6c1.1,0,2-0.9,2-2V24h-8v-4h12v-8H16V8h44C62.2,8,64,9.8,64,12z M28,28
		c-2.2,0-4,1.8-4,4c0,2.2,1.8,4,4,4h8c2.2,0,4-1.8,4-4c0-2.2-1.8-4-4-4H28z"/>
</g>
</svg>
