<svg xmlns="http://www.w3.org/2000/svg" viewBox="0 0 64 64"><g id="_29-Hand_wash_foam" data-name="29-Hand wash foam"><rect x="48" y="5" width="4" height="6" style="fill:#cdd2e1"/><polygon points="44 15 44 19 56 19 56 15 54 15 46 15 44 15" style="fill:#4a9bf6"/><polygon points="46 11 46 15 54 15 54 11 52 11 48 11 46 11" style="fill:#dce1eb"/><path d="M29,7h5a2.006,2.006,0,0,1,2-2H54a1.955,1.955,0,0,0,1.41-.59A1.955,1.955,0,0,0,56,3a2.006,2.006,0,0,0-2-2H35a6.009,6.009,0,0,0-6,6Z" style="fill:#4fc3f2"/><path d="M37,31V61a2.006,2.006,0,0,0,2,2H61a2.006,2.006,0,0,0,2-2V26a7,7,0,0,0-7-7H44a7,7,0,0,0-7,7Z" style="fill:#4fc3f2"/><path d="M47,15v1a2,2,0,0,0,2,2h7v1H44V15Z" style="fill:#4a7aff"/><path d="M46,11h3v1a2,2,0,0,0,2,2h3v1H46Z" style="fill:#bec3d2"/><path d="M52,5H48v6h1V9a2,2,0,0,1,2-2h1Z" style="fill:#8a90a0"/><path d="M36.9,3H56a1.955,1.955,0,0,1-.59,1.41A1.955,1.955,0,0,1,54,5H36a2.006,2.006,0,0,0-2,2H32l.053-.213A5,5,0,0,1,36.9,3Z" style="fill:#4a9bf6"/><rect x="38" y="1" width="14" height="2" rx="1" transform="translate(90 4) rotate(180)" style="fill:#58dff5"/><rect x="46" y="28" width="17" height="24" style="fill:#24f2dc"/><path d="M59,58H46a4,4,0,0,1-4-4V26c0-6,3-7,3-7H44a7,7,0,0,0-7,7V61a2.006,2.006,0,0,0,2,2H61a2.006,2.006,0,0,0,2-2V54A4,4,0,0,1,59,58Z" style="fill:#4a9bf6"/><rect x="46" y="52" width="17" height="5" style="fill:#c3f6fa"/><path d="M59.5,28.146a1.5,1.5,0,0,1-1.5-1.5A3.165,3.165,0,0,0,55.967,23.7,1.5,1.5,0,0,1,57.029,20.9,6.18,6.18,0,0,1,61,26.646,1.5,1.5,0,0,1,59.5,28.146Z" style="fill:#f0f1f2"/><path d="M32.53,42.5A2.57,2.57,0,0,0,29.9,40H20a3,3,0,0,1,0-6h4a3,3,0,0,1,0-6h2.55a4,4,0,1,1,6.9,0H36a3,3,0,0,1,0,6h4a3,3,0,0,1,3,3v1.97a2.112,2.112,0,0,0-.31.21A82.612,82.612,0,0,1,32.62,45H29.9a2.721,2.721,0,0,0,1.86-.73A2.418,2.418,0,0,0,32.53,42.5Z" style="fill:#e3fdff"/><path d="M43,38.97A5.918,5.918,0,0,1,46.27,38h.06c1.47,0,2.67.6,2.67,2a2.62,2.62,0,0,1-.86,2L33.48,51a10.68,10.68,0,0,1-6.81,2H12.71L5,60H1V50l9.82-7.98A7.479,7.479,0,0,1,15.96,40H29.9a2.57,2.57,0,0,1,2.63,2.5,2.418,2.418,0,0,1-.77,1.77A2.721,2.721,0,0,1,29.9,45h2.72a82.612,82.612,0,0,0,10.07-5.82A2.112,2.112,0,0,1,43,38.97Z" style="fill:#ffc9bd"/><path d="M31,43H19a2,2,0,0,0-2,2H29.9a2.721,2.721,0,0,0,1.86-.73,2.418,2.418,0,0,0,.77-1.77c0-.069-.016-.133-.021-.2A1.988,1.988,0,0,1,31,43Z" style="fill:#ffb4a3"/><path d="M30,42h2.453A2.582,2.582,0,0,0,29.9,40H28A2,2,0,0,0,30,42Z" style="fill:#ffe0d9"/><path d="M47.932,40.562,30.875,49.54a4.006,4.006,0,0,1-1.863.46H12.74a2,2,0,0,0-1.3.481L5.562,55.518A2,2,0,0,1,4.26,56H1v4H5l7.71-7H26.67a10.68,10.68,0,0,0,6.81-2l14.66-9A2.62,2.62,0,0,0,49,40a1.96,1.96,0,0,0-.1-.608A1.992,1.992,0,0,1,47.932,40.562Z" style="fill:#ffb4a3"/><path d="M41,38H25a2,2,0,0,1,0-4H20a3,3,0,0,0,0,6h9.9a2.57,2.57,0,0,1,2.63,2.5,2.418,2.418,0,0,1-.77,1.77A2.721,2.721,0,0,1,29.9,45h2.72a82.612,82.612,0,0,0,10.07-5.82,2.112,2.112,0,0,1,.31-.21V37a3.025,3.025,0,0,0-.055-.55A2,2,0,0,1,41,38Z" style="fill:#bdeef2"/><path d="M38,32H27a2,2,0,0,1,0-4H24a3,3,0,0,0,0,6H36a3,3,0,0,0,3-3A1,1,0,0,1,38,32Z" style="fill:#c3f6fa"/><path d="M31,26a2,2,0,0,1-2-2V22.141A3.964,3.964,0,0,0,26.55,28h6.9A4,4,0,0,0,34,26Z" style="fill:#c3f6fa"/><path d="M48.792,42.756A3.619,3.619,0,0,0,50,40c0-1.822-1.442-3-3.732-3A7.032,7.032,0,0,0,44,37.38V37a4,4,0,0,0-4-4h-.537A4,4,0,0,0,36,27H34.9a4.842,4.842,0,0,0,.1-1,5,5,0,0,0-10,0,4.842,4.842,0,0,0,.1,1H24a4,4,0,0,0-3.463,6H20a4,4,0,0,0-4,4,3.959,3.959,0,0,0,.556,2h-.594a8.371,8.371,0,0,0-5.775,2.244L.369,49.224l1.262,1.552,9.876-8.03A6.525,6.525,0,0,1,15.962,41H29.9a1.506,1.506,0,1,1,0,3H17.966v2H32.621a.989.989,0,0,0,.441-.1A82.823,82.823,0,0,0,43.3,39.981,4.986,4.986,0,0,1,46.326,39C47.09,39,48,39.174,48,40a1.648,1.648,0,0,1-.465,1.2L32.959,50.147a.985.985,0,0,0-.111.081A9.543,9.543,0,0,1,26.672,52H12.71a1,1,0,0,0-.672.26l-7.71,7,1.344,1.48L13.1,54H26.672a11.482,11.482,0,0,0,7.39-2.183l14.6-8.964A1.031,1.031,0,0,0,48.792,42.756ZM29.9,39H20a2,2,0,0,1,0-4h4a1,1,0,0,0,0-2,2,2,0,0,1,0-4h2.555a1,1,0,0,0,.864-1.5A2.946,2.946,0,0,1,27,26a3,3,0,0,1,6,0,2.946,2.946,0,0,1-.419,1.5,1,1,0,0,0,.864,1.5H36a2,2,0,0,1,0,4,1,1,0,0,0,0,2h4a2,2,0,0,1,2,2v1.452a72.993,72.993,0,0,1-8.637,5.053,3.331,3.331,0,0,0,.171-1.005A3.575,3.575,0,0,0,29.9,39Z"/><rect x="36" y="52" width="2" height="1.999"/><path d="M57,18.069V15a1,1,0,0,0-1-1H55V11a1,1,0,0,0-1-1H53V6h1a3,3,0,0,0,0-6H35a7.009,7.009,0,0,0-7,7,1,1,0,0,0,1,1h5a1,1,0,0,0,1-1,1,1,0,0,1,1-1H47v4H46a1,1,0,0,0-1,1v3H44a1,1,0,0,0-1,1v3.069A8.008,8.008,0,0,0,36,26h2a6.006,6.006,0,0,1,6-6H56a6.006,6.006,0,0,1,6,6v1H46a1,1,0,0,0-1,1v8h2V29H62V51H47V46H45V57a1,1,0,0,0,1,1H62v3a1,1,0,0,1-1,1H39a1,1,0,0,1-1-1V56H36v5a3,3,0,0,0,3,3H61a3,3,0,0,0,3-3V26A8.008,8.008,0,0,0,57,18.069ZM33.171,6H30.1A5.008,5.008,0,0,1,35,2H54a1,1,0,0,1,0,2H36A3.006,3.006,0,0,0,33.171,6ZM49,6h2v4H49Zm-2,6h6v2H47Zm-2,6V16H55v2Zm2,38V53H62v3Z"/></g></svg>