<?xml version="1.0" encoding="UTF-8"?>
<svg width="32" height="32" viewBox="0 0 32 32" fill="none" xmlns="http://www.w3.org/2000/svg">
    <path d="M22.2071 4.79289C22.5976 4.40237 23.0922 4.25 23.5 4.25C23.9078 4.25 24.4024 4.40237 24.7929 4.79289C25.1834 5.18342 25.3358 5.67805 25.3358 6.08579C25.3358 6.49353 25.1834 6.98816 24.7929 7.37868L9.37868 22.7929C9.21807 22.9535 9.01256 23.0646 8.79029 23.1134L4.79029 24.1134C4.43724 24.1926 4.06632 24.0696 3.79289 23.7929C3.51947 23.5163 3.39645 23.1454 3.47564 22.7923L4.47564 18.7923C4.52444 18.5701 4.63555 18.3645 4.79616 18.2039L20.2071 2.79289C20.5976 2.40237 21.0922 2.25 21.5 2.25C21.9078 2.25 22.4024 2.40237 22.7929 2.79289L22.2071 4.79289ZM21.5 4.66421L6.09526 20.069L5.42854 22.7391L8.09871 22.0724L23.5034 6.66763C23.6272 6.54386 23.7358 6.33658 23.7358 6.08579C23.7358 5.83499 23.6272 5.62772 23.5034 5.50395L23.5 5.5L23.4966 5.49632C23.3728 5.37255 23.1655 5.25 22.9147 5.25C22.6639 5.25 22.4566 5.37255 22.3328 5.49632L22.3294 5.5L22.3261 5.50342C22.2023 5.62719 22.0937 5.83447 22.0937 6.08526C22.0937 6.33605 22.2023 6.54333 22.3261 6.6671L21.5 4.66421Z" fill="#333333"/>
</svg> 