<?xml version="1.0" encoding="UTF-8"?>
<svg width="32" height="32" viewBox="0 0 32 32" fill="none" xmlns="http://www.w3.org/2000/svg">
    <path d="M4 8C4 7.44772 4.44772 7 5 7H27C27.5523 7 28 7.44772 28 8C28 8.55228 27.5523 9 27 9H5C4.44772 9 4 8.55228 4 8Z" fill="currentColor"/>
    <path d="M8 16C8 15.4477 8.44772 15 9 15H23C23.5523 15 24 15.4477 24 16C24 16.5523 23.5523 17 23 17H9C8.44772 17 8 16.5523 8 16Z" fill="currentColor"/>
    <path d="M12 24C12 23.4477 12.4477 23 13 23H19C19.5523 23 20 23.4477 20 24C20 24.5523 19.5523 25 19 25H13C12.4477 25 12 24.5523 12 24Z" fill="currentColor"/>
</svg> 