<?xml version="1.0" encoding="UTF-8"?>
<!DOCTYPE svg PUBLIC "-//W3C//DTD SVG 1.1//EN" "http://www.w3.org/Graphics/SVG/1.1/DTD/svg11.dtd">
<!-- Creator: CorelDRAW -->
<svg xmlns="http://www.w3.org/2000/svg" xml:space="preserve" width="6.82666in" height="6.82666in" style="shape-rendering:geometricPrecision; text-rendering:geometricPrecision; image-rendering:optimizeQuality; fill-rule:evenodd; clip-rule:evenodd"
viewBox="0 0 6.82666 6.82666"
 xmlns:xlink="http://www.w3.org/1999/xlink">
 <defs>
  <style type="text/css">
   <![CDATA[
    .fil1 {fill:none}
    .fil0 {fill:#5985E1;fill-rule:nonzero}
   ]]>
  </style>
 </defs>
 <g id="Layer_x0020_1">
  <metadata id="CorelCorpID_0Corel-Layer"/>
  <g id="_554249584">
   <path id="_554249440" class="fil0" d="M5.33333 5.22666l0 0.566091c0,0.0494921 -0.0202913,0.0945197 -0.0529606,0.127201l-0.000417323 0.000417323c-0.0326811,0.0326693 -0.0777087,0.0529606 -0.127201,0.0529606l-3.47885 0c-0.0494921,0 -0.0945197,-0.0202913 -0.127201,-0.0529606l-0.000417323 -0.000417323c-0.0326693,-0.0326811 -0.0529606,-0.0777087 -0.0529606,-0.127201l0 -4.75885c0,-0.0494921 0.0202913,-0.0945197 0.0529606,-0.127201l0.000417323 -0.000417323c0.0326811,-0.0326693 0.0777087,-0.0529606 0.127201,-0.0529606l3.47885 0c0.0494921,0 0.0945197,0.0202913 0.127201,0.0529606l0.000417323 0.000417323c0.0326693,0.0326811 0.0529606,0.0777087 0.0529606,0.127201l0 4.19276zm-0.213339 0.533331l0 -0.533331 0 -4.16 -3.41333 0 0 4.69333 3.41333 0z"/>
   <polygon id="_554249728" class="fil0" points="1.92636,1.91999 3.19037,1.91999 3.19037,2.13333 1.92636,2.13333 "/>
   <polygon id="_554249176" class="fil0" points="1.92636,2.69333 3.71084,2.69333 3.71084,2.90667 1.92636,2.90667 "/>
   <polygon id="_554249872" class="fil0" points="1.92636,3.46666 3.71084,3.46666 3.71084,3.68 1.92636,3.68 "/>
   <polygon id="_554249848" class="fil0" points="1.92636,4.23999 3.71084,4.23999 3.71084,4.45333 1.92636,4.45333 "/>
   <polygon id="_554249800" class="fil0" points="1.92636,5.01332 3.71084,5.01332 3.71084,5.22666 1.92636,5.22666 "/>
   <polygon id="_554249824" class="fil0" points="4.11246,4.59206 4.72902,4.58726 4.72985,4.79976 4.1133,4.80456 "/>
   <polygon id="_554249200" class="fil0" points="4.09626,2.51119 4.71282,2.50639 4.71365,2.71889 4.0971,2.72369 "/>
   <path id="_554249320" class="fil0" d="M4.82985 4.72893l-0.29839 0.838425 -0.2 0.0025 -0.318165 -0.833622 -0.00666929 -0.0375 -0.0192756 -2.47585c-0.000472441,-0.0612717 0.0166417,-0.118386 0.0445906,-0.161028 0.0364567,-0.0556181 0.0914094,-0.0903858 0.156035,-0.0908937l0.000417323 0 0.423886 -0.00330315c0.0640866,-0.000492126 0.119339,0.0334764 0.156705,0.0885906 0.028811,0.0425079 0.0469528,0.0995984 0.0474252,0.160996l0.0192756 2.47585 -0.00583465 0.0358346zm-0.40226 0.495134l0.195441 -0.549157 -0.019126 -2.45683c-0.00011811,-0.015248 -0.00306693,-0.028311 -0.00788976,-0.0377835l-0.388488 0.00302756c-0.00490945,0.00981496 -0.00779134,0.0232244 -0.00767323,0.0387244l0.0191181 2.45541 0.208618 0.546606z"/>
  </g>
 </g>
 <rect class="fil1" width="6.82666" height="6.82666"/>
</svg>
